# AST/ASF file generated using VICON BodyLanguage
# -----------------------------------------------
:version 1.10
:name VICON
:units
  mass 1.0
  length 0.45
  angle deg
:documentation
   .ast/.asf automatically generated from VICON data using
   VICON BodyBuilder and BodyLanguage model FoxedUp or BRILLIANT.MOD
:root
   order TX TY TZ RX RY RZ
   axis XYZ
   position 0 0 0  
   orientation 0 0 0 
:bonedata
  begin
     id 1 
     name lhipjoint
     direction 0.653368 -0.678499 0.335782 
     length 2.51848 
     axis 0 0 0  XYZ
  end
  begin
     id 2 
     name lfemur
     direction 0.34202 -0.939693 0  
     length 6.57749  
     axis 0 0 20  XYZ
    dof rx ry rz
    limits (-160.0 20.0)
           (-70.0 70.0)
           (-60.0 70.0)
  end
  begin
     id 3 
     name ltibia
     direction 0.34202 -0.939693 0   
     length 7.94618   
     axis 0 0 20   XYZ
    dof rx
    limits (-10.0 170.0)
  end
  begin
     id 4 
     name lfoot
     direction 0.0811271 -0.222895 0.971461   
     length 2.31339   
     axis -90 7.62852e-016 20   XYZ
    dof rx rz
    limits (-45.0 90.0)
           (-70.0 20.0)
  end
  begin
     id 5 
     name ltoes
     direction 1.53568e-011 -4.21885e-011 1   
     length 1.15935   
     axis -90 7.62852e-016 20   XYZ
    dof rx
    limits (-90.0 20.0)
  end
  begin
     id 6 
     name rhipjoint
     direction -0.640058 -0.688614 0.340788   
     length 2.48149  
     axis 0 0 0  XYZ 
  end
  begin
     id 7 
     name rfemur
     direction -0.34202 -0.939693 0   
     length 6.57875   
     axis 0 0 -20   XYZ
    dof rx ry rz
    limits (-160.0 20.0)
           (-70.0 70.0)
           (-70.0 60.0)
  end
  begin
     id 8 
     name rtibia
     direction -0.34202 -0.939693 0   
     length 7.977   
     axis 0 0 -20   XYZ
    dof rx
    limits (-10.0 170.0)
 end
 begin
     id 9 
     name rfoot
     direction -0.0979793 -0.269196 0.958089   
     length 2.19857  
     axis -90 -7.62852e-016 -20   XYZ
    dof rx rz
    limits (-45.0 90.0)
           (-20.0 70.0)
  end
  begin
     id 10 
     name rtoes
     direction -1.53556e-011 -4.21868e-011 1   
     length 1.09838   
     axis -90 -7.62852e-016 -20   XYZ
    dof rx
    limits (-90.0 20.0)
  end
  begin
     id 11 
     name lowerback
     direction 0.0149039 0.998517 -0.0523597   
     length 2.10809   
     axis 0 0 0   XYZ
    dof rx ry rz
    limits (-20.0 45.0)
           (-30.0 30.0)
           (-30.0 30.0)
  end
  begin
     id 12 
     name upperback
     direction -0.00882659 0.999418 -0.0329624   
     length 2.1102   
     axis 0 0 0   XYZ
    dof rx ry rz
    limits (-20.0 45.0)
           (-30.0 30.0)
           (-30.0 30.0)
  end
  begin
     id 13 
     name thorax
     direction -0.0165585 0.999826 -0.0085833   
     length 2.11039   
     axis 0 0 0   XYZ
    dof rx ry rz
    limits (-20.0 45.0)
           (-30.0 30.0)
           (-30.0 30.0)
  end
  begin
     id 14 
     name lowerneck
     direction -0.0130877 0.999911 0.00260353   
     length 1.73253   
     axis 0 0 0   XYZ
    dof rx ry rz
    limits (-20.0 45.0)
           (-30.0 30.0)
           (-30.0 30.0)
  end
  begin
     id 15 
     name upperneck
     direction -0.0348454 0.928205 -0.370435   
     length 1.66692   
     axis 0 0 0   XYZ
    dof rx ry rz
    limits (-20.0 45.0)
           (-30.0 30.0)
           (-30.0 30.0)
  end
  begin
     id 16
     name head
     direction -0.00807754 0.992494 -0.122026  
     length 1.72765  
     axis 0 0 0   XYZ
    dof rx ry rz
    limits (-20.0 45.0)
           (-30.0 30.0)
           (-30.0 30.0)
  end
  begin
     id 17 
     name lclavicle
     direction 0.987582 0.144023 0.0627671  
     length 3.49235  
     axis 0 0 0   XYZ
    dof ry rz
    limits (-20.0 10.0)
           (0.0 20.0)
  end
  begin
     id 18 
     name lhumerus
     direction 1 -4.48958e-011 -1.45183e-018   
     length 5.41917   
     axis 180 -30 -90   XYZ
    dof rx ry rz
    limits (-60.0 90.0)
           (-90.0 90.0)
           (-90.0 90.0)
  end
  begin
     id 19
     name lradius
     direction 1 -4.48999e-011 5.75106e-027   
     length 2.44373   
     axis 180 -30 -90   XYZ
    dof rx
    limits (-10.0 170.0)
  end
  begin
     id 20
     name lwrist
     direction 1 -4.48987e-011 1.53461e-026   
     length 1.22186   
     axis -1.09697e-014 90 90   XYZ
    dof ry
    limits (-180.0 0.0)
 end
  begin
     id 21 
     name lhand
     direction 1 -4.48881e-011 3.06923e-026   
     length 0.727502   
     axis -1.95843e-014 90 90   XYZ
    dof rx rz
    limits (-90.0 90.0)
           (-45.0 45.0)
  end
  begin
     id 22 
     name lfingers
     direction 1 -4.48907e-011 6.13845e-026   
     length 0.586531   
     axis -3.91686e-014 90 90   XYZ
    dof rx
    limits (0.0 90.0)
  end
  begin
     id 23
     name lthumb
     direction 0.707107 -6.3487e-011 0.707107   
     length 0.842145   
     axis -90 45 2.85299e-015   XYZ
    dof rx rz
    limits (-45.0 45.0)
           (-45.0 45.0)
  end
  begin
     id 24 
     name rclavicle
     direction -0.980998 0.169556 0.0943023   
     length 3.29272  
     axis 0 0 0   XYZ 
    dof ry rz
    limits (-10.0 20.0)
           (-20.0 0.0)
  end
  begin
     id 25 
     name rhumerus
     direction -1 -1.83355e-005 2.45537e-005  
     length 5.58976   
     axis 180 30 90   XYZ
    dof rx ry rz
    limits (-90.0 60.0)
           (-90.0 90.0)
           (-90.0 90.0)
  end
  begin
     id 26 
     name rradius
     direction -1 -4.48967e-011 5.97228e-027   
     length 2.4806   
     axis 180 30 90   XYZ
    dof rx
    limits (-10.0 170.0)
  end
  begin
     id 27 
     name rwrist
     direction -1 -4.48963e-011 1.53461e-026   
     length 1.2403   
     axis -1.09697e-014 -90 -90   XYZ
    dof ry
    limits (-180.0 0.0)
  end
  begin
     id 28
     name rhand
     direction -1 -4.48881e-011 3.06923e-026   
     length 0.816009   
     axis -1.95843e-014 -90 -90   XYZ
    dof rx rz
    limits (-90.0 90.0)
           (-45.0 45.0)
  end
  begin
     id 29
     name rfingers
     direction -1 -4.49018e-011 6.13845e-026   
     length 0.657887   
     axis -3.91686e-014 -90 -90   XYZ
    dof rx
    limits (0.0 90.0)
  end
  begin
     id 30
     name rthumb
     direction -0.707107 -6.34872e-011 0.707107   
     length 0.944599   
     axis -90 -45 -2.85299e-015   XYZ
    dof rx rz
    limits (-45.0 45.0)
           (-45.0 45.0)
  end
:hierarchy
  begin
    root lhipjoint rhipjoint lowerback
    lhipjoint lfemur
    lfemur ltibia
    ltibia lfoot
    lfoot ltoes
    rhipjoint rfemur
    rfemur rtibia
    rtibia rfoot
    rfoot rtoes
    lowerback upperback
    upperback thorax
    thorax lowerneck lclavicle rclavicle
    lowerneck upperneck
    upperneck head
    lclavicle lhumerus
    lhumerus lradius
    lradius lwrist
    lwrist lhand lthumb
    lhand lfingers
    rclavicle rhumerus
    rhumerus rradius
    rradius rwrist
    rwrist rhand rthumb
    rhand rfingers
  end

#!OML:ASF F:\VICON\USERDATA\INSTALL\rory3\rory3.ASF
:FULLY-SPECIFIED
:DEGREES
1
root 2.7023 17.0386 26.1091 -158.376 -59.1987 176.763
lowerback -7.33742 0.930161 -5.54254
upperback -9.65186 0.636611 -2.09433
thorax -6.07818 0.30389 0.943955
lowerneck -17.5717 -8.4936 -8.64469
upperneck 25.5963 -11.5964 5.21577
head 12.1753 -5.59109 1.47263
rclavicle 1.21756e-014 -1.74931e-014
rhumerus 176.951 -64.1252 144.8
rradius 12.1792
rwrist 104.91
rhand -6.71979 5.0049
rfingers 7.12502
rthumb 19.1403 -24.0733
lclavicle 1.21756e-014 -1.74931e-014
lhumerus -11.5094 29.6281 3.63885
lradius 17.9202
lwrist -54.1245
lhand 0.648665 29.3017
lfingers 7.12502
lthumb 26.2115 57.5117
rfemur -41.1433 2.58423 23.7741
rtibia 40.6495
rfoot -7.19425 -21.3405
rtoes -8.63761
lfemur -17.271 -4.61033 -7.77932
ltibia 29.7973
lfoot -57.5533 20.6356
ltoes 38.767
2
root 2.71877 17.2225 25.9767 -157.765 -58.7281 175.981
lowerback -7.80474 0.626908 -6.14951
upperback -9.33735 0.331401 -1.87546
thorax -5.47495 0.187354 1.51042
lowerneck -17.783 -8.11222 -8.22358
upperneck 25.5997 -11.0296 4.82418
head 12.117 -5.34049 1.35445
rclavicle -3.47376e-014 -5.96354e-014
rhumerus 175.297 -61.2548 147.038
rradius 12.3332
rwrist 107.526
rhand -7.17744 6.26336
rfingers 7.12502
rthumb 18.7002 -22.8578
lclavicle -3.47376e-014 -5.96354e-014
lhumerus -12.762 29.5297 2.70959
lradius 17.9398
lwrist -53.9123
lhand 0.403415 29.2789
lfingers 7.12502
lthumb 25.9767 57.5236
rfemur -39.8393 2.73308 23.5451
rtibia 38.5475
rfoot -4.02843 -20.4583
rtoes -12.5641
lfemur -17.6538 -4.41741 -9.84077
ltibia 29.732
lfoot -55.3967 21.1382
ltoes 38.0129
3
root 2.74437 17.3899 25.8364 -158.038 -58.3406 176.082
lowerback -7.87277 0.584803 -6.3204
upperback -9.22804 0.30527 -1.77906
thorax -5.32188 0.186312 1.70653
lowerneck -17.7053 -7.96801 -7.72272
upperneck 25.8157 -10.932 4.52791
head 12.1245 -5.29547 1.18265
rclavicle -5.08889e-014 7.95139e-016
rhumerus 175.556 -58.9401 147.522
rradius 12.5538
rwrist 109.349
rhand -7.13905 7.3512
rfingers 7.12502
rthumb 18.7371 -21.7664
lclavicle -5.08889e-014 7.95139e-016
lhumerus -13.1897 29.111 2.19253
lradius 17.8683
lwrist -53.7664
lhand 0.168587 29.2128
lfingers 7.12502
lthumb 25.7518 57.4903
rfemur -38.5456 2.68918 23.8868
rtibia 36.5724
rfoot -0.881322 -19.0987
rtoes -15.2923
lfemur -18.1413 -3.70546 -11.3805
ltibia 29.9681
lfoot -52.7437 21.6931
ltoes 37.3819
4
root 2.77008 17.567 25.6857 -158.514 -58.1302 176.213
lowerback -7.3701 0.805812 -6.26223
upperback -9.44436 0.519071 -2.01162
thorax -5.85171 0.290762 1.43031
lowerneck -16.9201 -7.99399 -6.88976
upperneck 26.1014 -11.2574 4.17099
head 12.0201 -5.44584 0.888687
rclavicle -2.68856e-014 4.69132e-014
rhumerus 178.277 -60.6599 145.867
rradius 12.5336
rwrist 106.967
rhand -6.78753 7.59393
rfingers 7.12502
rthumb 19.0752 -21.4907
lclavicle -2.68856e-014 4.69132e-014
lhumerus -12.5667 27.4018 2.27957
lradius 17.7804
lwrist -52.9962
lhand -0.03521 28.9665
lfingers 7.12502
lthumb 25.5566 57.2721
rfemur -37.0915 3.44154 24.0446
rtibia 34.7442
rfoot 1.69182 -19.125
rtoes -12.021
lfemur -18.4742 -2.6343 -12.8297
ltibia 30.1321
lfoot -48.2586 23.8936
ltoes 35.4898
5
root 2.7987 17.7347 25.5502 -158.432 -57.7645 175.75
lowerback -6.95241 1.00878 -6.43473
upperback -9.56954 0.724509 -2.32702
thorax -6.24195 0.397207 1.19213
lowerneck -16.5652 -7.95227 -6.9137
upperneck 26.7112 -11.4817 4.62806
head 12.2375 -5.51921 1.02388
rclavicle -1.44119e-015 1.59028e-015
rhumerus 180.573 -61.5366 144.434
rradius 12.4869
rwrist 104.988
rhand -6.69902 7.31622
rfingers 7.12502
rthumb 19.1603 -21.76
lclavicle -1.44119e-015 1.59028e-015
lhumerus -11.9622 25.8348 2.38576
lradius 17.6202
lwrist -52.1729
lhand -0.0521796 28.5059
lfingers 7.12502
lthumb 25.5404 56.8138
rfemur -36.0244 3.47983 24.0326
rtibia 33.2209
rfoot 4.24128 -19.0246
rtoes -6.6959
lfemur -18.8907 -2.03929 -14.6266
ltibia 30.398
lfoot -44.0735 25.0329
ltoes 33.9409
6
root 2.82922 17.8817 25.4285 -158.251 -57.3365 175.183
lowerback -6.72744 1.05349 -6.77615
upperback -9.55031 0.769395 -2.41108
thorax -6.36428 0.441118 1.29029
lowerneck -16.6814 -7.80871 -7.81542
upperneck 27.6218 -11.4633 5.58463
head 12.7581 -5.49402 1.50846
rclavicle -1.12711e-013 -2.22639e-014
rhumerus 181.74 -62.3412 144.058
rradius 12.4165
rwrist 102.735
rhand -6.32859 7.42057
rfingers 7.12502
rthumb 19.5165 -21.6199
lclavicle -1.12711e-013 -2.22639e-014
lhumerus -12.0183 25.4952 2.24646
lradius 17.4218
lwrist -52.3714
lhand -0.0793743 27.9138
lfingers 7.12502
lthumb 25.5143 56.2254
rfemur -35.1691 2.90904 24.157
rtibia 31.9951
rfoot 9.36602 -17.4107
rtoes -13.4332
lfemur -19.2943 -1.68972 -16.511
ltibia 30.5401
lfoot -39.9917 26.0884
ltoes 31.9287
7
root 2.85767 18.0197 25.309 -158.495 -57.0662 175.123
lowerback -6.50381 1.09784 -6.74585
upperback -9.58232 0.804146 -2.4334
thorax -6.52712 0.45998 1.24641
lowerneck -16.277 -7.63431 -8.10998
upperneck 28.1401 -11.391 5.93829
head 12.9262 -5.48003 1.71153
rclavicle -4.03533e-014 -3.26007e-014
rhumerus 182.813 -61.9998 143.757
rradius 12.4664
rwrist 101.744
rhand -6.05907 8.22536
rfingers 7.12502
rthumb 19.7756 -20.7886
lclavicle -4.03533e-014 -3.26007e-014
lhumerus -12.0119 23.0848 2.34914
lradius 17.4594
lwrist -50.6061
lhand 0.117803 28.2018
lfingers 7.12502
lthumb 25.7032 56.4863
rfemur -34.4243 2.70933 24.3675
rtibia 31.1151
rfoot 15.9311 -13.7296
rtoes -28.7164
lfemur -19.6328 -1.24836 -18.0139
ltibia 30.5377
lfoot -35.6431 26.846
ltoes 30.4409
8
root 2.89419 18.1751 25.1842 -159.072 -56.7643 175.581
lowerback -6.30179 1.2099 -6.54139
upperback -9.63953 0.933663 -2.36918
thorax -6.70608 0.519641 1.19657
lowerneck -15.63 -7.45542 -7.60548
upperneck 28.2768 -11.305 5.66871
head 12.7841 -5.45983 1.56486
rclavicle 1.28663e-013 9.78021e-014
rhumerus 183.918 -61.891 143.446
rradius 12.417
rwrist 100.661
rhand -5.86175 8.34596
rfingers 7.12502
rthumb 19.9652 -20.6484
lclavicle 1.28663e-013 9.78021e-014
lhumerus -11.822 19.6185 2.83746
lradius 17.6567
lwrist -47.474
lhand 0.386902 28.9865
lfingers 7.12502
lthumb 25.9609 57.2335
rfemur -34.1483 3.59421 24.1973
rtibia 30.4323
rfoot 10.1044 -21.3075
rtoes 15.9006
lfemur -20.0717 -0.791381 -19.1424
ltibia 30.454
lfoot -31.9848 26.7797
ltoes 29.2222
9
root 2.93398 18.3392 25.0585 -159.914 -56.4683 176.484
lowerback -6.15235 1.29566 -6.14676
upperback -9.67968 1.0459 -2.15456
thorax -6.82886 0.56481 1.1998
lowerneck -15.3299 -7.29574 -7.22171
upperneck 28.56 -11.1495 5.28597
head 12.77 -5.41979 1.39273
rclavicle -3.41413e-014 2.3059e-014
rhumerus 183.884 -60.3502 144.25
rradius 12.5518
rwrist 101.281
rhand -5.43213 7.90064
rfingers 7.12502
rthumb 20.3782 -21.0501
lclavicle -3.41413e-014 2.3059e-014
lhumerus -11.89 17.1741 3.2241
lradius 17.8714
lwrist -45.0932
lhand 0.540754 29.5218
lfingers 7.12502
lthumb 26.1082 57.7471
rfemur -34.1862 4.79197 24.0216
rtibia 29.9104
rfoot -1.25116 -26.1042
rtoes 46.7368
lfemur -20.7014 -0.44812 -19.9584
ltibia 30.4447
lfoot -28.7228 26.6346
ltoes 23.7431
10
root 2.97415 18.4773 24.9388 -160.621 -56.2277 177.455
lowerback -6.229 1.24212 -5.6859
upperback -9.72103 0.993681 -1.78302
thorax -6.81374 0.525105 1.33539
lowerneck -15.3824 -7.10683 -7.26562
upperneck 29.1559 -10.8519 4.94623
head 12.9815 -5.3462 1.31254
rclavicle -4.16951e-014 6.36111e-015
rhumerus 182.306 -55.9035 146.509
rradius 12.9676
rwrist 105.078
rhand -5.40294 7.40296
rfingers 7.12502
rthumb 20.4062 -21.5448
lclavicle -4.16951e-014 6.36111e-015
lhumerus -12.4607 17.1749 3.16251
lradius 17.8
lwrist -45.2664
lhand 0.518276 29.2494
lfingers 7.12502
lthumb 26.0867 57.4779
rfemur -34.4332 5.88587 23.9898
rtibia 29.5961
rfoot -5.76384 -27.6102
rtoes 49.5277
lfemur -21.5915 -0.145624 -20.6742
ltibia 30.4774
lfoot -25.9671 26.543
ltoes 26.6424
11
root 3.01382 18.572 24.8228 -161.001 -55.9097 178.168
lowerback -6.5226 1.21374 -5.319
upperback -9.70227 0.985808 -1.50561
thorax -6.61563 0.503874 1.42804
lowerneck -15.4256 -6.92252 -7.13603
upperneck 29.5595 -10.5665 4.57893
head 13.1021 -5.26113 1.1935
rclavicle 6.26172e-014 2.90226e-014
rhumerus 181.823 -55.4658 147.543
rradius 13.0672
rwrist 104.715
rhand -5.31799 6.15396
rfingers 7.12502
rthumb 20.4879 -22.7851
lclavicle 6.26172e-014 2.90226e-014
lhumerus -12.918 17.7881 3.06175
lradius 17.7009
lwrist -45.4917
lhand 0.370684 28.811
lfingers 7.12502
lthumb 25.9454 57.0602
rfemur -34.5053 5.60901 24.49
rtibia 29.408
rfoot -17.235 -23.5043
rtoes 58.0497
lfemur -22.6883 0.243723 -21.5372
ltibia 30.6981
lfoot -23.1847 26.562
ltoes 25.4689
12
root 3.0485 18.6689 24.7101 -161.397 -55.5657 178.936
lowerback -6.81119 1.29618 -4.78905
upperback -9.74319 1.10462 -1.31384
thorax -6.48661 0.530551 1.33976
lowerneck -15.1325 -6.76527 -6.95413
upperneck 29.6776 -10.3475 4.27745
head 13.0407 -5.20029 1.0952
rclavicle 1.30701e-014 -1.63003e-014
rhumerus 182.712 -58.5553 147.289
rradius 12.9189
rwrist 100.906
rhand -4.8628 6.13655
rfingers 7.12502
rthumb 20.9252 -22.7548
lclavicle 1.30701e-014 -1.63003e-014
lhumerus -13.0698 18.024 3.1482
lradius 17.6662
lwrist -45.2731
lhand 0.540428 28.6224
lfingers 7.12502
lthumb 26.1079 56.8478
rfemur -34.7311 4.68685 25.1058
rtibia 29.3898
rfoot -27.7525 -4.77238
rtoes 62.888
lfemur -23.7715 0.404186 -22.3169
ltibia 30.985
lfoot -21.1988 26.0381
ltoes 26.1952
13
root 3.07261 18.7587 24.6116 -161.751 -55.3764 179.85
lowerback -7.2395 1.30858 -3.8863
upperback -9.78969 1.12137 -1.06853
thorax -6.26575 0.480791 1.10178
lowerneck -15.1445 -6.55599 -6.899
upperneck 30.0192 -10.017 3.97693
head 13.139 -5.09663 1.02174
rclavicle -5.76476e-014 -6.36111e-015
rhumerus 182.647 -59.4363 147.968
rradius 12.861
rwrist 99.3644
rhand -4.85543 6.90179
rfingers 7.12502
rthumb 20.9323 -21.9888
lclavicle -5.76476e-014 -6.36111e-015
lhumerus -13.4758 17.8493 3.22938
lradius 17.7683
lwrist -44.5591
lhand 0.422562 28.626
lfingers 7.12502
lthumb 25.9951 56.868
rfemur -35.2038 3.82122 25.6486
rtibia 29.5159
rfoot -22.8459 15.9294
rtoes 52.5956
lfemur -25.0664 0.854787 -23.037
ltibia 31.3212
lfoot -18.5908 25.8399
ltoes 26.8757
14
root 3.09991 18.8293 24.5234 -161.687 -55.0406 180.254
lowerback -7.58361 1.33043 -3.22845
upperback -9.80921 1.14644 -0.849444
thorax -6.07484 0.452122 0.970762
lowerneck -15.1803 -6.38107 -7.07772
upperneck 30.2749 -9.68314 3.77914
head 13.2297 -5.00143 1.02669
rclavicle -4.55714e-014 -1.59028e-015
rhumerus 181.583 -57.4262 149.7
rradius 13.0276
rwrist 100.872
rhand -4.75963 7.692
rfingers 7.12502
rthumb 21.0243 -21.1884
lclavicle -4.55714e-014 -1.59028e-015
lhumerus -14.0002 19.1632 3.21954
lradius 17.7448
lwrist -45.1681
lhand 0.171827 28.2999
lfingers 7.12502
lthumb 25.7549 56.5769
rfemur -35.801 3.42831 25.6759
rtibia 29.8031
rfoot -2.75619 27.1547
rtoes -2.47492
lfemur -26.2797 1.23174 -24.0883
ltibia 31.5645
lfoot -16.2362 25.8619
ltoes 26.115
15
root 3.14344 18.8833 24.4092 -161.964 -54.3665 180.832
lowerback -7.78127 1.50632 -3.00978
upperback -9.79843 1.39031 -0.583953
thorax -5.96119 0.567646 1.13499
lowerneck -14.975 -6.30379 -7.01039
upperneck 30.372 -9.54294 3.50018
head 13.1958 -4.98047 0.937437
rclavicle -4.03533e-014 -1.59028e-014
rhumerus 181.623 -59.3873 150.253
rradius 12.7683
rwrist 97.9093
rhand -4.71087 7.21197
rfingers 7.12502
rthumb 21.0712 -21.6632
lclavicle -4.03533e-014 -1.59028e-014
lhumerus -14.1718 20.4289 3.37811
lradius 17.6832
lwrist -45.9044
lhand 0.119482 27.9746
lfingers 7.12502
lthumb 25.7048 56.2589
rfemur -36.2339 3.23985 25.9256
rtibia 30.2142
rfoot -1.48907 26.8467
rtoes -10.656
lfemur -27.1153 1.72854 -24.885
ltibia 31.7813
lfoot -15.1825 25.2766
ltoes 27.1038
